# xmcd CD database file
# Copyright (C) 1993-1998 Ti Kan
#
# Track frame offsets:
#	150
#	14000
#	35444
#	49902
#	58329
#	78201
#	88918
#	105250
#	118378
#	124702
#	140632
#	149535
#	160456
#	175275
#	186168
#	202736
#	214607
#	228149
#
# Disc length: 3248 seconds
#
# Revision: 1
# Processed by: cddbd v1.4b41PL1 Copyright (c) Steve Scherf et al.
# Submitted via: CDValet v3.31 - Copyright (c) 1997 Greg Leichner
#
DISCID=050cae12
DTITLE=Back Alley John - One-Way Ticket To Palookaville
DYEAR=1900
DGENRE=
TTITLE0=Western Plains
TTITLE1=St. James Infirmary
TTITLE2=If I Could Change
TTITLE3=Hobo
TTITLE4=It's Autumn and I'm Leaving
TTITLE5=Alberta
TTITLE6=Parchment Farm
TTITLE7=How Many Times Have You Quit Me
TTITLE8=Way Back In Those Hills
TTITLE9=Nobody Knew You Were Hurting
TTITLE10=Singer Ree
TTITLE11=Frankie and Albert
TTITLE12=The Road
TTITLE13=Guess I'm A Fool
TTITLE14=Funny How Time Slips Away
TTITLE15=The Worst Night of My Life
TTITLE16=Rank Stranger
TTITLE17=Guilty
EXTD=
EXTT0=
EXTT1=
EXTT2=
EXTT3=
EXTT4=
EXTT5=
EXTT6=
EXTT7=
EXTT8=
EXTT9=
EXTT10=
EXTT11=
EXTT12=
EXTT13=
EXTT14=
EXTT15=
EXTT16=
EXTT17=
PLAYORDER=
